<svg width="115.000000" height="40.000000" viewBox="0 0 115 40" fill="none" xmlns="http://www.w3.org/2000/svg" xmlns:xlink="http://www.w3.org/1999/xlink">
	<desc>
			Created with Pixso.
	</desc>
	<defs>
		<clipPath id="clip2_1107">
			<rect id="Frame" width="115.000000" height="40.000000" fill="white" fill-opacity="0"/>
		</clipPath>
	</defs>
	<rect id="Frame" width="115.000000" height="40.000000" fill="#FFFFFF" fill-opacity="0"/>
	<g clip-path="url(#clip2_1107)">
		<path id="Vector" d="M32.5688 32.6316C33.2109 32.6316 33.7427 32.8491 34.1689 33.2786C34.606 33.7083 34.8164 34.2439 34.8164 34.8804C34.8164 35.5168 34.606 36.042 34.1689 36.4822C33.7427 36.9119 33.2109 37.1294 32.5688 37.1294L31.1846 37.1294L31.1846 39.4736L30.0688 39.4736L30.0688 32.637L32.5688 32.637L32.5688 32.6316ZM32.5688 36.0686C33.2271 36.0686 33.7007 35.5701 33.7007 34.8752C33.7007 34.1804 33.2271 33.6819 32.5688 33.6819L31.1846 33.6819L31.1846 36.0632L32.5688 36.0632L32.5688 36.0686Z" fill="#103559" fill-opacity="1.000000" fill-rule="nonzero"/>
		<path id="Vector" d="M36.4961 37.5164C36.6577 38.2014 37.2861 38.5781 38.1377 38.5781C38.7222 38.5781 39.1616 38.3872 39.4619 38.0203L40.3745 38.49C39.874 39.1458 39.1226 39.4736 38.1323 39.4736C37.3027 39.4736 36.624 39.2485 36.1123 38.8081C35.6001 38.3579 35.3442 37.7903 35.3442 37.1052C35.3442 36.4202 35.6001 35.8721 36.1011 35.4219C36.6021 34.9619 37.2583 34.7368 38.0488 34.7368C38.7944 34.7368 39.4121 34.9717 39.8906 35.4316C40.3745 35.8916 40.6196 36.4592 40.6196 37.115C40.6196 37.2129 40.6084 37.3499 40.5806 37.5212L36.5015 37.5212L36.4961 37.5164ZM39.501 36.7236C39.3452 35.9944 38.7607 35.6128 38.0376 35.6128C37.2197 35.6128 36.6465 36.0386 36.4907 36.7236L39.501 36.7236Z" fill="#103559" fill-opacity="1.000000" fill-rule="nonzero"/>
		<path id="Vector" d="M43.7842 35.5461L42.5732 35.5461L42.5732 37.8972C42.5732 38.5247 42.9824 38.5142 43.7842 38.4768L43.7842 39.429C42.1699 39.6257 41.5166 39.1843 41.5166 37.9023L41.5166 35.5515L40.6191 35.5515L40.6191 34.5303L41.5166 34.5303L41.5166 33.4717L42.5732 33.158L42.5732 34.5303L43.7842 34.5303L43.7842 35.5515L43.7842 35.5461Z" fill="#103559" fill-opacity="1.000000" fill-rule="nonzero"/>
		<path id="Vector" d="M46.3867 36.6816C47.1001 36.8333 48.0244 37.1223 48.0044 38.0874C48.0044 38.5186 47.8286 38.8613 47.4868 39.1062C47.1455 39.3511 46.7183 39.4736 46.2007 39.4736C45.2866 39.4736 44.6084 39.0769 44.312 38.4204L45.1709 37.9355C45.3267 38.3667 45.6685 38.5869 46.1958 38.5869C46.7231 38.5869 46.9844 38.4155 46.9844 38.0825C46.9844 37.7935 46.5977 37.6221 46.1055 37.5044C45.4121 37.333 44.478 37.0637 44.498 36.1133C44.498 35.697 44.6538 35.3638 44.98 35.114C45.3018 34.8594 45.7134 34.7368 46.1909 34.7368C46.9595 34.7368 47.5771 35.0896 47.9038 35.6772L47.0601 36.1377C46.9043 35.7949 46.6079 35.6235 46.1909 35.6235C45.814 35.6235 45.5176 35.7852 45.5176 36.1035C45.5176 36.4023 45.9043 36.5542 46.3867 36.6914L46.3867 36.6816Z" fill="#103559" fill-opacity="1.000000" fill-rule="nonzero"/>
		<path id="Vector" d="M54.335 33.6377C53.5039 33.5701 53.0996 33.8875 53.0996 34.5852L53.0996 34.679L54.335 34.679L54.335 35.6785L53.0996 35.6785L53.0996 39.4736L51.9668 39.4736L51.9668 35.6785L51.1699 35.6785L51.1699 34.679L51.9668 34.679L51.9668 34.5852C51.9668 33.2732 52.7866 32.5549 54.335 32.6382L54.335 33.6377Z" fill="#103559" fill-opacity="1.000000" fill-rule="nonzero"/>
		<path id="Vector" d="M55.6328 38.7886C55.123 38.3286 54.8623 37.7708 54.8623 37.1052C54.8623 36.4397 55.123 35.8818 55.6328 35.4219C56.1431 34.9619 56.7725 34.7368 57.5 34.7368C58.2271 34.7368 58.8569 34.9619 59.3667 35.4219C59.877 35.8818 60.1377 36.4397 60.1377 37.1052C60.1377 37.7708 59.877 38.3286 59.3667 38.7886C58.8569 39.2485 58.2378 39.4736 57.5 39.4736C56.7617 39.4736 56.1431 39.2485 55.6328 38.7886ZM57.5 38.5293C57.9395 38.5293 58.3086 38.3921 58.6069 38.123C58.9058 37.854 59.0576 37.5115 59.0576 37.1052C59.0576 36.699 58.9058 36.3564 58.6069 36.0874C58.3086 35.8184 57.9395 35.6812 57.5 35.6812C57.0605 35.6812 56.6914 35.8184 56.3926 36.0874C56.0942 36.3564 55.9424 36.699 55.9424 37.1052C55.9424 37.5115 56.0942 37.854 56.3926 38.123C56.6914 38.3921 57.0605 38.5293 57.5 38.5293Z" fill="#103559" fill-opacity="1.000000" fill-rule="nonzero"/>
		<path id="Vector" d="M61.752 35.6013C62.0249 35.0249 62.5488 34.7368 63.3027 34.7368L63.3027 35.8237C62.8931 35.7935 62.5273 35.8894 62.2158 36.1018C61.9048 36.3091 61.752 36.6528 61.752 37.1279L61.752 39.4736L60.665 39.4736L60.665 34.8176L61.752 34.8176L61.752 35.6013Z" fill="#103559" fill-opacity="1.000000" fill-rule="nonzero"/>
		<path id="Vector" d="M71.2153 37.5203C71.2153 38.0776 71.0283 38.5447 70.6494 38.9163C70.27 39.2878 69.8101 39.4736 69.2637 39.4736L66.4678 39.4736L66.4678 32.6316L69.0566 32.6316C69.5874 32.6316 70.0425 32.8174 70.4067 33.1782C70.7808 33.5393 70.9629 33.9905 70.9629 34.5266C70.9629 35.1211 70.7402 35.5828 70.3003 35.9226C70.8667 36.2358 71.2104 36.8037 71.2104 37.5151L71.2153 37.5203ZM67.5396 33.688L67.5396 35.4873L69.0566 35.4873C69.5317 35.4873 69.896 35.0945 69.896 34.5903C69.896 34.0859 69.5317 33.6931 69.0566 33.6931L67.5396 33.6931L67.5396 33.688ZM69.2637 38.4175C69.7593 38.4175 70.1484 37.998 70.1484 37.4619C70.1484 36.9258 69.7593 36.5066 69.2637 36.5066L67.5396 36.5066L67.5396 38.4226L69.2637 38.4226L69.2637 38.4175Z" fill="#103559" fill-opacity="1.000000" fill-rule="nonzero"/>
		<path id="Vector" d="M73.4214 37.5164C73.5825 38.2014 74.2104 38.5781 75.061 38.5781C75.6445 38.5781 76.084 38.3872 76.3838 38.0203L77.2954 38.49C76.7954 39.1458 76.0449 39.4736 75.0557 39.4736C74.2271 39.4736 73.5488 39.2485 73.0376 38.8081C72.5264 38.3579 72.2705 37.7903 72.2705 37.1052C72.2705 36.4202 72.5264 35.8721 73.0264 35.4219C73.5269 34.9619 74.1826 34.7368 74.9722 34.7368C75.7168 34.7368 76.334 34.9717 76.8174 35.4316C77.3013 35.8916 77.5459 36.4592 77.5459 37.115C77.5459 37.2129 77.5347 37.3499 77.5068 37.5212L73.4321 37.5212L73.4214 37.5164ZM76.4229 36.7236C76.2671 35.9944 75.6836 35.6128 74.9609 35.6128C74.1436 35.6128 73.5713 36.0386 73.4155 36.7236L76.4282 36.7236L76.4229 36.7236Z" fill="#103559" fill-opacity="1.000000" fill-rule="nonzero"/>
		<path id="Vector" d="M79.6206 36.6816C80.334 36.8333 81.2583 37.1223 81.2383 38.0874C81.2383 38.5186 81.0625 38.8613 80.7207 39.1062C80.3794 39.3511 79.9521 39.4736 79.4346 39.4736C78.5205 39.4736 77.8423 39.0769 77.5459 38.4204L78.4048 37.9355C78.5605 38.3667 78.9023 38.5869 79.4297 38.5869C79.957 38.5869 80.2183 38.4155 80.2183 38.0825C80.2183 37.7935 79.8315 37.6221 79.3394 37.5044C78.646 37.333 77.7119 37.0637 77.7319 36.1133C77.7319 35.697 77.8877 35.3638 78.2139 35.114C78.5356 34.8594 78.9473 34.7368 79.4248 34.7368C80.1934 34.7368 80.811 35.0896 81.1377 35.6772L80.2939 36.1377C80.1382 35.7949 79.8418 35.6235 79.4248 35.6235C79.0479 35.6235 78.7515 35.7852 78.7515 36.1035C78.7515 36.4023 79.1382 36.5542 79.6206 36.6914L79.6206 36.6816Z" fill="#103559" fill-opacity="1.000000" fill-rule="nonzero"/>
		<path id="Vector" d="M84.9312 35.5461L83.7227 35.5461L83.7227 37.8972C83.7227 38.5247 84.1309 38.5142 84.9312 38.4768L84.9312 39.429C83.3193 39.6257 82.6675 39.1843 82.6675 37.9023L82.6675 35.5515L81.7661 35.5515L81.7661 34.5303L82.6675 34.5303L82.6675 33.4717L83.7227 33.158L83.7227 34.5303L84.9312 34.5303L84.9312 35.5515L84.9312 35.5461Z" fill="#103559" fill-opacity="1.000000" fill-rule="nonzero"/>
		<path id="Vector" d="M24.9888 3.21436C24.8506 1.85327 24.3037 1.57886 23.2417 1.57886L18.7178 1.57886C17.7246 1.57886 17.4858 1.7478 17.1084 2.83984L13.7158 13.8723L10.3228 2.83984C9.94531 1.7478 9.70654 1.57886 8.71387 1.57886L4.18408 1.57886C3.12207 1.57886 2.5752 1.85327 2.4375 3.21436L0.0371094 24.8733C-0.0634766 25.6541 0.00537109 25.9653 0.69043 26.0657L5.86768 26.8149C6.65332 26.915 6.82861 26.7463 6.92969 26.166L8.06055 16.0198L10.4927 25.5222C10.7314 26.303 11.0396 26.6143 11.8306 26.6143L15.6006 26.6143C16.3867 26.6143 16.6997 26.3083 16.939 25.5222L19.3389 16.0198L20.5015 26.166C20.6025 26.7463 20.7778 26.915 21.5635 26.8149L26.7407 26.0657C27.4258 25.9653 27.4946 25.6594 27.394 24.8733L24.9888 3.21436Z" fill="#103559" fill-opacity="1.000000" fill-rule="nonzero"/>
		<path id="Vector" d="M37.4541 7.36841C31.644 7.36841 28.4863 11.3508 28.4863 16.842C28.4863 22.3335 31.644 26.3157 37.4541 26.3157C43.2642 26.3157 46.4219 22.3335 46.4219 16.842C46.4219 11.3508 43.2642 7.36841 37.4541 7.36841ZM37.4541 20.1191C36.0596 20.1191 35.312 18.8125 35.312 16.8369C35.312 14.8613 36.0596 13.5544 37.4541 13.5544C38.8486 13.5544 39.5962 14.8613 39.5962 16.8369C39.5962 18.8125 38.8486 20.1191 37.4541 20.1191Z" fill="#103559" fill-opacity="1.000000" fill-rule="nonzero"/>
		<path id="Vector" d="M59.4521 7.37891C58.2607 7.37891 49.3491 7.61548 48.7695 8.43066C48.5322 8.7041 48.5322 9.07739 48.5322 9.71899L48.8062 24.5173C48.8379 25.874 49.1489 26.3157 50.3345 26.3157L54.4873 26.3157C55.6787 26.3157 56.0156 25.874 56.0156 24.5173L56.0156 14.2996C56.5269 14.1311 56.6958 14.0627 57.2754 14.0261C58.0552 13.9944 58.4297 14.2312 58.6719 14.8726C58.8408 15.551 58.8774 16.5713 58.8774 17.9595L58.8457 24.512C58.8457 25.8689 59.2202 26.3105 60.4111 26.3105L64.6641 26.3105C65.855 26.3105 66.1606 25.8689 66.1924 24.512L66.4663 15.4827C66.498 13.2739 66.0239 11.2388 64.9014 9.74536C63.7104 8.25195 61.9395 7.36841 59.457 7.36841L59.4521 7.37891Z" fill="#103559" fill-opacity="1.000000" fill-rule="nonzero"/>
		<path id="Vector" d="M75.4136 9.47363L71.1387 9.47363C69.9692 9.47363 69.6328 9.87695 69.6328 11.2339L69.6328 24.5242C69.6328 25.8757 69.9692 26.3157 71.1387 26.3157L75.481 26.3157C76.6509 26.3157 77.0181 25.8757 77.0181 24.5242L76.9507 11.2339C76.9507 9.91357 76.5835 9.47363 75.4136 9.47363Z" fill="#103559" fill-opacity="1.000000" fill-rule="nonzero"/>
		<path id="Vector" d="M73.5894 0.526367C71.0571 0.526367 69.6328 2.08545 69.6328 4.21069C69.6328 6.33569 71.0571 7.89478 73.5894 7.89478C76.1211 7.89478 77.5459 6.33569 77.5459 4.21069C77.5459 2.08545 76.1211 0.526367 73.5894 0.526367Z" fill="#103559" fill-opacity="1.000000" fill-rule="nonzero"/>
		<path id="Vector" d="M91.9473 7.91968L89.3174 7.91968L89.3174 3.34399C89.3174 1.98853 88.9692 1.57886 87.7646 1.57886L83.6836 1.57886C82.4731 1.57886 82.0928 2.02002 82.0928 3.34399L82.0928 7.91968L80.0205 7.91968C78.8794 7.91968 78.6011 8.12451 78.6011 9.17505L78.6011 12.8735C78.6011 13.9241 78.8794 14.1289 80.0205 14.1289L82.0928 14.1289L82.0928 20.5696C82.0928 24.9087 84.4067 26.842 88.7661 26.842C90.0459 26.842 91.3257 26.7422 92.5361 26.5005C93.0557 26.4006 93.1948 26.2642 93.1948 25.7546L93.0234 20.5642C93.0234 20.123 92.7827 19.9548 92.3325 20.0547C91.9526 20.1545 91.5723 20.2229 91.0527 20.2229C90.0513 20.2229 89.3228 19.8813 89.3228 18.4263L89.3228 14.1184L91.9526 14.1184C93.0933 14.1184 93.3716 13.9136 93.3716 12.863L93.3716 9.16455C93.3716 8.11401 93.0933 7.90918 91.9526 7.90918L91.9473 7.91968Z" fill="#103559" fill-opacity="1.000000" fill-rule="nonzero"/>
		<path id="Vector" d="M103.395 7.36841C97.5845 7.36841 94.4268 11.3508 94.4268 16.842C94.4268 22.3335 97.5845 26.3157 103.395 26.3157C109.205 26.3157 112.362 22.3335 112.362 16.842C112.362 11.3508 109.205 7.36841 103.395 7.36841ZM103.395 20.1191C102 20.1191 101.252 18.8125 101.252 16.8369C101.252 14.8613 102 13.5544 103.395 13.5544C104.789 13.5544 105.537 14.8613 105.537 16.8369C105.537 18.8125 104.789 20.1191 103.395 20.1191Z" fill="#103559" fill-opacity="1.000000" fill-rule="nonzero"/>
		<path id="Vector" d="M114.03 8.1106C113.42 7.67065 112.422 7.9248 111.792 8.67725C111.161 9.42969 111.145 10.3972 111.75 10.8369C112.359 11.2766 113.357 11.0227 113.988 10.2703C114.619 9.51758 114.634 8.55029 114.03 8.1106Z" fill="#103559" fill-opacity="1.000000" fill-rule="nonzero"/>
		<path id="Vector" d="M99.6851 6.8313C100.401 6.72119 100.871 5.8147 100.732 4.80347C100.594 3.79248 99.9072 3.05884 99.1909 3.16895C98.4746 3.27881 98.0049 4.1853 98.1436 5.19653C98.2817 6.20776 98.9688 6.94116 99.6851 6.8313Z" fill="#103559" fill-opacity="1.000000" fill-rule="nonzero"/>
		<path id="Vector" d="M108.969 7.76074C109.96 8.26123 111.46 7.31494 112.315 5.64502C113.169 3.97534 113.06 2.21313 112.063 1.71265C111.072 1.21216 109.571 2.15869 108.717 3.82837C107.863 5.49829 107.972 7.2605 108.969 7.76074Z" fill="#103559" fill-opacity="1.000000" fill-rule="nonzero"/>
		<path id="Vector" d="M103.837 6.30737C104.836 6.43433 105.805 5.12598 105.998 3.38843C106.191 1.64551 105.538 0.135742 104.534 0.00854492C103.535 -0.118652 102.566 1.18994 102.373 2.92749C102.18 4.67041 102.833 6.18018 103.837 6.30737Z" fill="#103559" fill-opacity="1.000000" fill-rule="nonzero"/>
	</g>
</svg>
