<svg width="17.462280" height="20.000000" viewBox="0 0 17.4623 20" fill="none" xmlns="http://www.w3.org/2000/svg" xmlns:xlink="http://www.w3.org/1999/xlink">
	<desc>
			Created with Pixso.
	</desc>
	<defs/>
	<path id="Vector" d="M2.49927 10.1406L4.39771 9.44922C4.4563 9.42578 4.52661 9.41406 4.59692 9.41406L16.761 9.41406C17.0891 9.41406 17.3469 9.67188 17.3469 10L17.3469 18.2422C17.3469 19.2148 16.5618 20 15.5891 20L3.87036 20C2.89771 20 2.11255 19.2148 2.11255 18.2422L2.11255 10.6914C2.11255 10.4453 2.26489 10.2227 2.49927 10.1406Z" fill="#FC1A40" fill-opacity="1.000000" fill-rule="nonzero"/>
	<path id="Vector" d="M2.11255 10.6914L2.11255 18.2422C2.11255 19.2148 2.89771 20 3.87036 20L9.72974 20L9.72974 9.41406L4.59692 9.41406C4.52661 9.41406 4.4563 9.42578 4.39771 9.44922L2.49927 10.1406C2.26489 10.2227 2.11255 10.4453 2.11255 10.6914Z" fill="#C60034" fill-opacity="1.000000" fill-rule="nonzero"/>
	<path id="Vector" d="M2.32349 3.81982C2.52258 3.01123 3.12036 2.37842 3.92896 2.12061C4.72583 1.87451 5.5813 2.05029 6.20239 2.61279L7.56177 3.80811L7.8313 2.01514C7.96021 1.19482 8.48755 0.503418 9.27258 0.175293C9.42493 0.116699 9.57727 0.0698242 9.72961 0.0463867C10.3741 -0.0825195 11.0421 0.0581055 11.5813 0.456543C12.2961 0.972168 12.6593 1.83936 12.5422 2.70654C12.4132 3.57373 11.8273 4.31201 10.9954 4.60498L9.72961 5.06201L8.17102 5.63623C8.1593 5.63623 8.1593 5.63623 8.1593 5.63623L5.45227 6.63232C5.18286 6.72607 4.90161 6.77295 4.63208 6.77295C4.05774 6.77295 3.49524 6.56201 3.04993 6.16357C2.3938 5.57764 2.11255 4.67529 2.32349 3.81982Z" fill="#FE9923" fill-opacity="1.000000" fill-rule="nonzero"/>
	<path id="Vector" d="M3.05005 6.16357C3.49536 6.56201 4.05786 6.77307 4.63208 6.77307C4.90161 6.77307 5.18286 6.72607 5.45239 6.63232L8.15942 5.63623C8.15942 5.63623 8.15942 5.63623 8.17114 5.63623L9.72974 5.06201L9.72974 0.0463867C9.57739 0.0698242 9.42505 0.116699 9.27271 0.175293C8.48755 0.503418 7.96021 1.19482 7.8313 2.01514L7.56189 3.80811L6.20239 2.61279C5.58142 2.05029 4.72583 1.87451 3.92896 2.12061C3.12036 2.37842 2.52271 3.01123 2.32349 3.81982C2.11255 4.67529 2.3938 5.57764 3.05005 6.16357Z" fill="#FE8821" fill-opacity="1.000000" fill-rule="nonzero"/>
	<path id="Vector" d="M0.108643 9.14453L0.905518 11.3477C0.999268 11.582 1.22192 11.7227 1.4563 11.7227C1.52661 11.7227 1.59692 11.7109 1.65552 11.6875L7.71411 9.48438L8.26489 7.66797L9.72974 7.99609L11.0188 8.28906L17.0774 6.08594C17.3821 5.96875 17.5344 5.62891 17.429 5.33594L16.6204 3.13281C16.468 2.6875 16.1399 2.33594 15.718 2.13672C15.2961 1.9375 14.8157 1.91406 14.3704 2.07812L9.72974 3.76562L9.41321 3.88281C9.41321 3.88281 8.14771 6.17969 8.11243 6.17969C8.08899 6.17969 7.58508 5.89844 7.0929 5.62891C6.60083 5.35938 6.10864 5.07812 6.10864 5.07812L1.16333 6.88281C0.718018 7.04688 0.366455 7.375 0.167358 7.79688C-0.0319824 8.21875 -0.0554199 8.69922 0.108643 9.14453Z" fill="#FF3E75" fill-opacity="1.000000" fill-rule="nonzero"/>
	<path id="Vector" d="M0.108643 9.14453L0.905518 11.3477C0.999268 11.582 1.22192 11.7227 1.4563 11.7227C1.52661 11.7227 1.59692 11.7109 1.65552 11.6875L7.71411 9.48438L8.26489 7.66797L9.72974 7.99609L9.72974 3.76562L9.41333 3.88281C9.41333 3.88281 8.14771 6.17969 8.11255 6.17969C8.08899 6.17969 7.58521 5.89844 7.09302 5.62891C6.60083 5.35938 6.10864 5.07812 6.10864 5.07812L1.16333 6.88281C0.718018 7.04688 0.366455 7.375 0.167358 7.79688C-0.0319824 8.21875 -0.0554199 8.69922 0.108643 9.14453Z" fill="#FC1A40" fill-opacity="1.000000" fill-rule="nonzero"/>
	<path id="Vector" d="M11.4875 9.41406L11.4875 20L7.97192 20L7.97192 9.41406L11.4875 9.41406Z" fill="#FCBF29" fill-opacity="1.000000" fill-rule="nonzero"/>
	<path id="Vector" d="M9.41333 3.88281L9.72974 4.75L11.0188 8.28906L9.72974 8.75793L8.26489 9.28528L7.71423 9.48438L6.10864 5.07812L9.41333 3.88281Z" fill="#FCBF29" fill-opacity="1.000000" fill-rule="nonzero"/>
	<path id="Vector" d="M9.72949 9.41406L7.97168 9.41406L7.97168 20L9.72949 20L9.72949 9.41406Z" fill="#FE9923" fill-opacity="1.000000" fill-rule="evenodd"/>
	<path id="Vector" d="M6.10864 5.07812L7.71411 9.48438L8.26489 9.28516L9.72974 8.75781L9.72974 4.75L9.41333 3.88281L6.10864 5.07812Z" fill="#FE9923" fill-opacity="1.000000" fill-rule="nonzero"/>
</svg>
